# xmcd CD database file generated by Grip 3.0.5
# 
# Track frame offsets:
#       180
#       13876
#       30272
#       45447
#       57377
#       69145
#       91184
#       106658
#       119143
#       132835
#       145550
#       165397
#       180735
#       200854
# 
# Disc length: 3012 seconds
# 
# Revision: 1
# Processed by: cddbd v1.5.1PL0 Copyright (c) Steve Scherf et al.
# Submitted via: Grip 3.0.5
# 
DISCID=b50bc20e
DTITLE=Rob Rio - Swingtrain
DYEAR=1998
DGENRE=Blues
TTITLE0=Swingtrain
TTITLE1=Rockhouse
TTITLE2=My Baby Just Cares For Me
TTITLE3=The Perfect Woman
TTITLE4=La Earthquake Boogie
TTITLE5=The Reefer Smoker
TTITLE6=Baby Let Me Bang Your Box
TTITLE7=Save The Planet
TTITLE8=Woe Is Me
TTITLE9=Spann Salad
TTITLE10=When I Most Needed You
TTITLE11=Pacifica's Grand Boogie-Woogie
TTITLE12=Mighty Koodepakaway
TTITLE13=Hippo Wallow
EXTD=
EXTT0=
EXTT1=
EXTT2=
EXTT3=
EXTT4=
EXTT5=
EXTT6=
EXTT7=
EXTT8=
EXTT9=
EXTT10=
EXTT11=
EXTT12=
EXTT13=
PLAYORDER=
